<svg width="120" height="124" viewBox="0 0 120 124" fill="none" xmlns="http://www.w3.org/2000/svg">
<path d="M4.158 9.72L3.42 7.812V18H1.26V5.4H4.5L7.308 12.222L10.116 5.4H13.32V18H11.16V7.794L10.404 9.72L8.37 14.67H6.21L4.158 9.72ZM15.7423 9H17.8303V11.7H19.1623C20.5423 11.7 21.5443 11.982 22.1683 12.546C22.8043 13.11 23.1223 13.878 23.1223 14.85C23.1223 15.822 22.8043 16.59 22.1683 17.154C21.5443 17.718 20.5423 18 19.1623 18H15.7423V9ZM24.0943 9H26.1823V18H24.0943V9ZM17.8303 13.41V16.29H19.2523C19.8283 16.29 20.2483 16.164 20.5123 15.912C20.7883 15.66 20.9263 15.306 20.9263 14.85C20.9263 14.394 20.7883 14.04 20.5123 13.788C20.2483 13.536 19.8283 13.41 19.2523 13.41H17.8303ZM33.0216 9H36.5316C37.2036 9 37.7736 9.06 38.2416 9.18C38.7096 9.3 39.0876 9.474 39.3756 9.702C39.6756 9.918 39.8916 10.182 40.0236 10.494C40.1556 10.806 40.2216 11.154 40.2216 11.538C40.2216 11.898 40.1316 12.234 39.9516 12.546C39.7716 12.858 39.4896 13.122 39.1056 13.338C39.6216 13.542 39.9936 13.824 40.2216 14.184C40.4616 14.544 40.5816 14.94 40.5816 15.372C40.5816 15.78 40.5156 16.146 40.3836 16.47C40.2516 16.794 40.0356 17.07 39.7356 17.298C39.4476 17.526 39.0696 17.7 38.6016 17.82C38.1336 17.94 37.5636 18 36.8916 18H33.0216V9ZM35.0376 14.22V16.344H36.8916C37.4436 16.344 37.8276 16.254 38.0436 16.074C38.2716 15.882 38.3856 15.618 38.3856 15.282C38.3856 14.946 38.2716 14.688 38.0436 14.508C37.8276 14.316 37.4436 14.22 36.8916 14.22H35.0376ZM35.0376 10.656V12.6H36.5316C37.1076 12.6 37.4976 12.516 37.7016 12.348C37.9176 12.18 38.0256 11.94 38.0256 11.628C38.0256 11.316 37.9176 11.076 37.7016 10.908C37.4976 10.74 37.1076 10.656 36.5316 10.656H35.0376ZM50.5631 18.162C49.9151 18.162 49.3271 18.066 48.7991 17.874C48.2831 17.67 47.8391 17.382 47.4671 17.01C47.1071 16.626 46.8251 16.164 46.6211 15.624C46.4291 15.084 46.3331 14.472 46.3331 13.788V13.212C46.3331 12.54 46.4291 11.934 46.6211 11.394C46.8251 10.854 47.1131 10.398 47.4851 10.026C47.8571 9.642 48.3011 9.348 48.8171 9.144C49.3451 8.94 49.9271 8.838 50.5631 8.838C51.7031 8.838 52.5851 9.12 53.2091 9.684C53.8451 10.248 54.2531 10.98 54.4331 11.88H52.2011C52.1051 11.556 51.9071 11.292 51.6071 11.088C51.3071 10.884 50.9291 10.782 50.4731 10.782C50.2091 10.782 49.9571 10.83 49.7171 10.926C49.4891 11.01 49.2851 11.154 49.1051 11.358C48.9251 11.55 48.7811 11.802 48.6731 12.114C48.5771 12.414 48.5291 12.78 48.5291 13.212V13.788C48.5291 14.208 48.5831 14.574 48.6911 14.886C48.7991 15.186 48.9431 15.438 49.1231 15.642C49.3031 15.834 49.5071 15.978 49.7351 16.074C49.9751 16.17 50.2211 16.218 50.4731 16.218C50.9891 16.218 51.3791 16.104 51.6431 15.876C51.9191 15.648 52.1051 15.366 52.2011 15.03H54.4331C54.2531 15.978 53.8451 16.74 53.2091 17.316C52.5851 17.88 51.7031 18.162 50.5631 18.162ZM59.741 18.162C58.385 18.162 57.323 17.778 56.555 17.01C55.799 16.242 55.421 15.168 55.421 13.788V13.212C55.421 12.528 55.517 11.916 55.709 11.376C55.913 10.836 56.201 10.38 56.573 10.008C56.957 9.624 57.413 9.336 57.941 9.144C58.469 8.94 59.069 8.838 59.741 8.838C61.097 8.838 62.153 9.222 62.909 9.99C63.677 10.758 64.061 11.832 64.061 13.212V13.788C64.061 14.472 63.959 15.084 63.755 15.624C63.563 16.164 63.275 16.626 62.891 17.01C62.519 17.382 62.063 17.67 61.523 17.874C60.995 18.066 60.401 18.162 59.741 18.162ZM59.741 16.218C60.425 16.218 60.947 16.02 61.307 15.624C61.679 15.228 61.865 14.616 61.865 13.788V13.212C61.865 12.396 61.673 11.79 61.289 11.394C60.917 10.986 60.401 10.782 59.741 10.782C59.057 10.782 58.529 10.98 58.157 11.376C57.797 11.772 57.617 12.384 57.617 13.212V13.788C57.617 14.604 57.803 15.216 58.175 15.624C58.559 16.02 59.081 16.218 59.741 16.218ZM65.8575 9H67.9455V16.164H71.4195V9H73.5075V16.164H74.6775V20.34H72.6615V18H65.8575V9ZM79.7252 18.162C79.0772 18.162 78.4892 18.066 77.9612 17.874C77.4452 17.67 77.0012 17.382 76.6292 17.01C76.2692 16.626 75.9872 16.164 75.7832 15.624C75.5912 15.084 75.4952 14.472 75.4952 13.788V13.212C75.4952 12.54 75.5912 11.934 75.7832 11.394C75.9872 10.854 76.2752 10.398 76.6472 10.026C77.0192 9.642 77.4632 9.348 77.9792 9.144C78.5072 8.94 79.0892 8.838 79.7252 8.838C80.8652 8.838 81.7472 9.12 82.3712 9.684C83.0072 10.248 83.4152 10.98 83.5952 11.88H81.3632C81.2672 11.556 81.0692 11.292 80.7692 11.088C80.4692 10.884 80.0912 10.782 79.6352 10.782C79.3712 10.782 79.1192 10.83 78.8792 10.926C78.6512 11.01 78.4472 11.154 78.2672 11.358C78.0872 11.55 77.9432 11.802 77.8352 12.114C77.7392 12.414 77.6912 12.78 77.6912 13.212V13.788C77.6912 14.208 77.7452 14.574 77.8532 14.886C77.9612 15.186 78.1052 15.438 78.2852 15.642C78.4652 15.834 78.6692 15.978 78.8972 16.074C79.1372 16.17 79.3832 16.218 79.6352 16.218C80.1512 16.218 80.5412 16.104 80.8052 15.876C81.0812 15.648 81.2672 15.366 81.3632 15.03H83.5952C83.4152 15.978 83.0072 16.74 82.3712 17.316C81.7472 17.88 80.8652 18.162 79.7252 18.162ZM88.8131 18.162C88.1651 18.162 87.5831 18.066 87.0671 17.874C86.5511 17.67 86.1071 17.382 85.7351 17.01C85.3631 16.626 85.0751 16.164 84.8711 15.624C84.6791 15.084 84.5831 14.472 84.5831 13.788V13.212C84.5831 12.528 84.6791 11.916 84.8711 11.376C85.0751 10.836 85.3631 10.38 85.7351 10.008C86.1071 9.624 86.5511 9.336 87.0671 9.144C87.5831 8.94 88.1651 8.838 88.8131 8.838C90.1211 8.838 91.1531 9.24 91.9091 10.044C92.6651 10.848 93.0431 12 93.0431 13.5V14.202H86.6711C86.7311 14.958 86.9411 15.504 87.3011 15.84C87.6611 16.164 88.1651 16.326 88.8131 16.326C89.4491 16.326 89.9111 16.218 90.1991 16.002C90.4991 15.774 90.6971 15.51 90.7931 15.21H92.9531C92.8571 15.63 92.7071 16.02 92.5031 16.38C92.2991 16.74 92.0291 17.052 91.6931 17.316C91.3571 17.58 90.9491 17.79 90.4691 17.946C89.9891 18.09 89.4371 18.162 88.8131 18.162ZM88.8131 10.674C88.2011 10.674 87.7211 10.824 87.3731 11.124C87.0251 11.424 86.8031 11.898 86.7071 12.546H90.9191C90.8351 11.874 90.6131 11.394 90.2531 11.106C89.9051 10.818 89.4251 10.674 88.8131 10.674ZM93.5923 9H101.152V10.836H98.4163V18H96.3283V10.836H93.5923V9ZM101.984 12.042C101.984 11.562 102.056 11.136 102.2 10.764C102.356 10.38 102.596 10.062 102.92 9.81C103.244 9.546 103.664 9.348 104.18 9.216C104.708 9.072 105.35 9 106.106 9H109.436V18H107.348V15.084H106.106C105.998 15.084 105.896 15.084 105.8 15.084C105.704 15.084 105.608 15.078 105.512 15.066L104.036 18H101.696L103.532 14.67C102.98 14.418 102.584 14.07 102.344 13.626C102.104 13.182 101.984 12.654 101.984 12.042ZM104.18 12.042C104.18 12.486 104.318 12.822 104.594 13.05C104.87 13.278 105.374 13.392 106.106 13.392H107.348V10.692H106.106C105.374 10.692 104.87 10.806 104.594 11.034C104.318 11.262 104.18 11.598 104.18 12.042ZM115.066 14.976L113.032 18H110.692L113.806 13.446L110.836 9H113.248L115.138 11.862L117.064 9H119.368L116.398 13.374L119.512 18H117.1L115.066 14.976Z" fill="white" fill-opacity="0.92"/>
<g clip-path="url(#clip0_1_4179)">
<path fill-rule="evenodd" clip-rule="evenodd" d="M6.24667 38.5H13.7542C15.8225 38.5 17.5 40.1767 17.5 42.2467V49.7542C17.5 51.8225 15.8233 53.5 13.7533 53.5H6.24667C4.1775 53.5 2.5 51.8233 2.5 49.7533V42.2467C2.5 40.1775 4.17667 38.5 6.24667 38.5V38.5Z" stroke="white" stroke-width="1.5" stroke-linecap="round" stroke-linejoin="round"/>
<path d="M14.1246 41.5942C13.9696 41.5951 13.8438 41.7209 13.8438 41.8759C13.8438 42.0309 13.9704 42.1567 14.1254 42.1567C14.2804 42.1567 14.4063 42.0309 14.4063 41.8759C14.4071 41.7201 14.2804 41.5942 14.1246 41.5942Z" stroke="white" stroke-width="1.5" stroke-linecap="round" stroke-linejoin="round"/>
<path d="M12.1213 43.8787C13.2929 45.0503 13.2929 46.9497 12.1213 48.1213C10.9497 49.2929 9.05026 49.2929 7.87868 48.1213C6.70711 46.9497 6.70711 45.0503 7.87868 43.8787C9.05026 42.7071 10.9497 42.7071 12.1213 43.8787" stroke="white" stroke-width="1.5" stroke-linecap="round" stroke-linejoin="round"/>
</g>
<path d="M29.408 40.8H30.912V52H29.408V40.8ZM33.5125 44H34.6325L34.7765 45.104C35.0538 44.7093 35.4112 44.4053 35.8485 44.192C36.2858 43.9787 36.7872 43.872 37.3525 43.872C38.2805 43.872 39.0165 44.1653 39.5605 44.752C40.1152 45.328 40.3925 46.1707 40.3925 47.28V52H38.9525V47.28C38.9525 46.5973 38.7925 46.0907 38.4725 45.76C38.1525 45.4187 37.6992 45.248 37.1125 45.248C36.4618 45.248 35.9445 45.4293 35.5605 45.792C35.1765 46.1547 34.9738 46.624 34.9525 47.2V52H33.5125V44ZM45.4356 52.128C44.401 52.128 43.6276 51.8987 43.1156 51.44C42.6143 50.9813 42.321 50.3413 42.2356 49.52H43.7396C43.7823 49.7547 43.8356 49.9573 43.8996 50.128C43.9743 50.2987 44.0756 50.4373 44.2036 50.544C44.3316 50.6507 44.497 50.7307 44.6996 50.784C44.9023 50.8267 45.1476 50.848 45.4356 50.848C46.0863 50.848 46.529 50.7573 46.7636 50.576C47.009 50.384 47.1316 50.112 47.1316 49.76C47.1316 49.44 47.0143 49.2 46.7796 49.04C46.545 48.8693 46.2516 48.736 45.8996 48.64C45.5476 48.544 45.169 48.4587 44.7636 48.384C44.3583 48.2987 43.9796 48.176 43.6276 48.016C43.2756 47.856 42.9823 47.6373 42.7476 47.36C42.513 47.072 42.3956 46.672 42.3956 46.16C42.3956 45.8293 42.4543 45.5253 42.5716 45.248C42.6996 44.9707 42.8863 44.7307 43.1316 44.528C43.3876 44.3253 43.7076 44.1653 44.0916 44.048C44.4756 43.9307 44.9236 43.872 45.4356 43.872C46.3956 43.872 47.121 44.096 47.6116 44.544C48.1023 44.9813 48.3903 45.5733 48.4756 46.32H46.9716C46.8863 45.9253 46.737 45.632 46.5236 45.44C46.3103 45.248 45.9476 45.152 45.4356 45.152C44.8596 45.152 44.4596 45.2427 44.2356 45.424C44.0116 45.6053 43.8996 45.8507 43.8996 46.16C43.8996 46.448 44.017 46.6613 44.2516 46.8C44.4863 46.928 44.7796 47.0347 45.1316 47.12C45.4836 47.2053 45.8623 47.2907 46.2676 47.376C46.673 47.4507 47.0516 47.5733 47.4036 47.744C47.7556 47.9147 48.049 48.16 48.2836 48.48C48.5183 48.7893 48.6356 49.216 48.6356 49.76C48.6356 50.4533 48.3796 51.024 47.8676 51.472C47.3556 51.9093 46.545 52.128 45.4356 52.128ZM49.5994 44H51.0394V41.76H52.4794V44H54.5594V45.312H52.4794V49.488C52.4794 50.288 52.8527 50.688 53.5994 50.688H54.7194V52H53.3914C52.634 52 52.0527 51.7973 51.6474 51.392C51.242 50.9867 51.0394 50.4053 51.0394 49.648V45.312H49.5994V44ZM58.4813 52.128C57.6493 52.128 57.0146 51.92 56.5773 51.504C56.1399 51.0773 55.9213 50.496 55.9213 49.76C55.9213 49.3547 55.9853 48.992 56.1133 48.672C56.2413 48.3413 56.4439 48.064 56.7213 47.84C57.0093 47.616 57.3719 47.4453 57.8093 47.328C58.2573 47.2107 58.8013 47.152 59.4413 47.152H61.0413V46.56C61.0413 46.112 60.9079 45.7653 60.6413 45.52C60.3853 45.2747 59.9853 45.152 59.4413 45.152C58.8973 45.152 58.5026 45.2533 58.2573 45.456C58.0226 45.6587 57.8839 45.92 57.8413 46.24H56.2413C56.2839 45.5573 56.5613 44.992 57.0733 44.544C57.5959 44.096 58.3853 43.872 59.4413 43.872C60.4439 43.872 61.2013 44.112 61.7133 44.592C62.2253 45.072 62.4813 45.728 62.4813 46.56V52H61.3613L61.1853 50.688C60.8973 51.1467 60.5186 51.504 60.0493 51.76C59.5906 52.0053 59.0679 52.128 58.4813 52.128ZM58.6413 50.848C58.9933 50.848 59.3133 50.7893 59.6013 50.672C59.8999 50.5547 60.1559 50.4 60.3693 50.208C60.5826 50.0053 60.7479 49.7707 60.8653 49.504C60.9826 49.2373 61.0413 48.9547 61.0413 48.656V48.368H59.4413C58.7053 48.368 58.1826 48.496 57.8733 48.752C57.5746 48.9973 57.4253 49.3227 57.4253 49.728C57.4253 50.0693 57.5319 50.3413 57.7453 50.544C57.9586 50.7467 58.2573 50.848 58.6413 50.848ZM67.4818 51.808C67.0231 51.808 66.5964 51.728 66.2018 51.568C65.8178 51.408 65.4871 51.1733 65.2098 50.864C64.9324 50.544 64.7138 50.16 64.5538 49.712C64.3938 49.2533 64.3138 48.7307 64.3138 48.144V47.536C64.3138 46.96 64.3938 46.4427 64.5538 45.984C64.7138 45.5253 64.9324 45.1413 65.2098 44.832C65.4978 44.5227 65.8338 44.288 66.2178 44.128C66.6018 43.9573 67.0231 43.872 67.4818 43.872C68.6444 43.872 69.5084 44.2933 70.0738 45.136L70.2338 44H71.3538V52C71.3538 53.088 71.0658 53.9147 70.4898 54.48C69.9244 55.0453 69.0818 55.328 67.9618 55.328C66.8951 55.328 66.1058 55.0987 65.5938 54.64C65.0924 54.192 64.7991 53.5787 64.7138 52.8H66.1538C66.2391 53.2053 66.4098 53.5147 66.6658 53.728C66.9218 53.9413 67.3538 54.048 67.9618 54.048C68.6551 54.048 69.1511 53.888 69.4498 53.568C69.7591 53.2587 69.9138 52.736 69.9138 52V50.784C69.3271 51.4667 68.5164 51.808 67.4818 51.808ZM67.8658 50.432C68.4631 50.432 68.9538 50.2293 69.3378 49.824C69.7218 49.4187 69.9138 48.8587 69.9138 48.144V47.536C69.9138 46.8213 69.7218 46.2613 69.3378 45.856C68.9538 45.4507 68.4631 45.248 67.8658 45.248C67.2258 45.248 66.7244 45.4453 66.3618 45.84C65.9991 46.224 65.8178 46.7893 65.8178 47.536V48.144C65.8178 48.9013 65.9991 49.472 66.3618 49.856C66.7351 50.24 67.2364 50.432 67.8658 50.432ZM73.7469 44H74.8669L75.0109 45.088C75.2882 44.6933 75.6402 44.3947 76.0669 44.192C76.4935 43.9787 76.9735 43.872 77.5069 43.872H78.3069V45.248H77.5069C76.7709 45.248 76.2055 45.4293 75.8109 45.792C75.4162 46.1547 75.2082 46.624 75.1869 47.2V52H73.7469V44ZM81.825 52.128C80.993 52.128 80.3583 51.92 79.921 51.504C79.4837 51.0773 79.265 50.496 79.265 49.76C79.265 49.3547 79.329 48.992 79.457 48.672C79.585 48.3413 79.7877 48.064 80.065 47.84C80.353 47.616 80.7157 47.4453 81.153 47.328C81.601 47.2107 82.145 47.152 82.785 47.152H84.385V46.56C84.385 46.112 84.2517 45.7653 83.985 45.52C83.729 45.2747 83.329 45.152 82.785 45.152C82.241 45.152 81.8463 45.2533 81.601 45.456C81.3663 45.6587 81.2277 45.92 81.185 46.24H79.585C79.6277 45.5573 79.905 44.992 80.417 44.544C80.9397 44.096 81.729 43.872 82.785 43.872C83.7877 43.872 84.545 44.112 85.057 44.592C85.569 45.072 85.825 45.728 85.825 46.56V52H84.705L84.529 50.688C84.241 51.1467 83.8623 51.504 83.393 51.76C82.9343 52.0053 82.4117 52.128 81.825 52.128ZM81.985 50.848C82.337 50.848 82.657 50.7893 82.945 50.672C83.2437 50.5547 83.4997 50.4 83.713 50.208C83.9263 50.0053 84.0917 49.7707 84.209 49.504C84.3263 49.2373 84.385 48.9547 84.385 48.656V48.368H82.785C82.049 48.368 81.5263 48.496 81.217 48.752C80.9183 48.9973 80.769 49.3227 80.769 49.728C80.769 50.0693 80.8757 50.3413 81.089 50.544C81.3023 50.7467 81.601 50.848 81.985 50.848ZM88.1375 44H89.2575L89.4015 45.088C89.6788 44.6933 90.0202 44.3947 90.4255 44.192C90.8415 43.9787 91.3055 43.872 91.8175 43.872C92.3615 43.872 92.8468 43.9947 93.2735 44.24C93.7002 44.4853 94.0362 44.848 94.2815 45.328C94.5588 44.8693 94.9268 44.512 95.3855 44.256C95.8442 44 96.3615 43.872 96.9375 43.872C97.3535 43.872 97.7375 43.9467 98.0895 44.096C98.4415 44.2453 98.7455 44.464 99.0015 44.752C99.2575 45.04 99.4548 45.3973 99.5935 45.824C99.7428 46.24 99.8175 46.7253 99.8175 47.28V52H98.3775V47.28C98.3775 46.5973 98.2175 46.0907 97.8975 45.76C97.5882 45.4187 97.1615 45.248 96.6175 45.248C96.0735 45.248 95.6202 45.4293 95.2575 45.792C94.9055 46.1547 94.7188 46.624 94.6975 47.2V52H93.2575V47.28C93.2575 46.5973 93.0975 46.0907 92.7775 45.76C92.4682 45.4187 92.0415 45.248 91.4975 45.248C90.9535 45.248 90.5002 45.424 90.1375 45.776C89.7855 46.128 89.5988 46.6027 89.5775 47.2V52H88.1375V44Z" fill="white"/>
<g clip-path="url(#clip1_1_4179)">
<path fill-rule="evenodd" clip-rule="evenodd" d="M6.25 72.5H13.7533C15.8225 72.5 17.5 74.1775 17.5 76.2467V83.7542C17.5 85.8225 15.8225 87.5 13.7533 87.5H6.24667C4.1775 87.5 2.5 85.8225 2.5 83.7533V76.25C2.5 74.1792 4.17917 72.5 6.25 72.5V72.5Z" stroke="white" stroke-width="1.5" stroke-linecap="round" stroke-linejoin="round"/>
<path d="M9.25 80.75H13.75" stroke="white" stroke-width="1.5" stroke-linecap="round" stroke-linejoin="round"/>
<path d="M13.75 77H12.9625C11.7408 77 10.75 77.9908 10.75 79.2125V80V87.5" stroke="white" stroke-width="1.5" stroke-linecap="round" stroke-linejoin="round"/>
</g>
<path d="M29.28 74.8H36.24V76.176H30.784V79.632H35.28V81.008H30.784V86H29.28V74.8ZM39.2 86.128C38.368 86.128 37.7333 85.92 37.296 85.504C36.8587 85.0773 36.64 84.496 36.64 83.76C36.64 83.3547 36.704 82.992 36.832 82.672C36.96 82.3413 37.1627 82.064 37.44 81.84C37.728 81.616 38.0907 81.4453 38.528 81.328C38.976 81.2107 39.52 81.152 40.16 81.152H41.76V80.56C41.76 80.112 41.6267 79.7653 41.36 79.52C41.104 79.2747 40.704 79.152 40.16 79.152C39.616 79.152 39.2213 79.2533 38.976 79.456C38.7413 79.6587 38.6027 79.92 38.56 80.24H36.96C37.0027 79.5573 37.28 78.992 37.792 78.544C38.3147 78.096 39.104 77.872 40.16 77.872C41.1627 77.872 41.92 78.112 42.432 78.592C42.944 79.072 43.2 79.728 43.2 80.56V86H42.08L41.904 84.688C41.616 85.1467 41.2373 85.504 40.768 85.76C40.3093 86.0053 39.7867 86.128 39.2 86.128ZM39.36 84.848C39.712 84.848 40.032 84.7893 40.32 84.672C40.6187 84.5547 40.8747 84.4 41.088 84.208C41.3013 84.0053 41.4667 83.7707 41.584 83.504C41.7013 83.2373 41.76 82.9547 41.76 82.656V82.368H40.16C39.424 82.368 38.9013 82.496 38.592 82.752C38.2933 82.9973 38.144 83.3227 38.144 83.728C38.144 84.0693 38.2507 84.3413 38.464 84.544C38.6773 84.7467 38.976 84.848 39.36 84.848ZM48.6325 86.128C47.5232 86.128 46.6432 85.7973 45.9925 85.136C45.3525 84.4747 45.0325 83.5307 45.0325 82.304V81.696C45.0325 81.088 45.1178 80.5493 45.2885 80.08C45.4592 79.6107 45.6992 79.2107 46.0085 78.88C46.3178 78.5493 46.6965 78.2987 47.1445 78.128C47.5925 77.9573 48.0885 77.872 48.6325 77.872C49.1018 77.872 49.5178 77.936 49.8805 78.064C50.2538 78.192 50.5738 78.368 50.8405 78.592C51.1178 78.8053 51.3418 79.0613 51.5125 79.36C51.6938 79.6587 51.8272 79.9787 51.9125 80.32H50.3765C50.2592 80.0427 50.0565 79.7973 49.7685 79.584C49.4912 79.36 49.0858 79.248 48.5525 79.248C47.9445 79.248 47.4538 79.4507 47.0805 79.856C46.7178 80.2613 46.5365 80.8747 46.5365 81.696V82.304C46.5365 83.1147 46.7232 83.728 47.0965 84.144C47.4698 84.5493 47.9552 84.752 48.5525 84.752C49.0965 84.752 49.5072 84.64 49.7845 84.416C50.0618 84.192 50.2592 83.8933 50.3765 83.52H51.9125C51.7525 84.288 51.4005 84.9173 50.8565 85.408C50.3125 85.888 49.5712 86.128 48.6325 86.128ZM56.7106 86.128C56.1773 86.128 55.6866 86.0427 55.2386 85.872C54.8013 85.6907 54.4226 85.4347 54.1026 85.104C53.7933 84.7733 53.548 84.3733 53.3666 83.904C53.196 83.4347 53.1106 82.9013 53.1106 82.304V81.696C53.1106 81.1093 53.196 80.5813 53.3666 80.112C53.548 79.6427 53.7986 79.2427 54.1186 78.912C54.4386 78.5813 54.8173 78.3253 55.2546 78.144C55.692 77.9627 56.1773 77.872 56.7106 77.872C57.244 77.872 57.7293 77.9627 58.1666 78.144C58.6146 78.3147 58.9933 78.5653 59.3026 78.896C59.6226 79.2267 59.868 79.632 60.0386 80.112C60.22 80.5813 60.3106 81.1093 60.3106 81.696V82.464H54.6146C54.636 83.2427 54.8386 83.8293 55.2226 84.224C55.6066 84.6187 56.1026 84.816 56.7106 84.816C57.34 84.816 57.7986 84.704 58.0866 84.48C58.3746 84.256 58.5986 83.936 58.7586 83.52H60.2306C60.0706 84.3093 59.7133 84.944 59.1586 85.424C58.604 85.8933 57.788 86.128 56.7106 86.128ZM56.7106 79.184C56.1346 79.184 55.66 79.3547 55.2866 79.696C54.924 80.0267 54.7053 80.5333 54.6306 81.216H58.7746C58.7106 80.512 58.5026 80 58.1506 79.68C57.7986 79.3493 57.3186 79.184 56.7106 79.184ZM66.1193 86.128C65.5433 86.128 65.0313 86.0267 64.5833 85.824C64.1353 85.6107 63.7726 85.2907 63.4953 84.864L63.3513 86H62.2313V74.8H63.6713V78.928C63.9486 78.576 64.2953 78.3147 64.7113 78.144C65.1273 77.9627 65.5966 77.872 66.1193 77.872C66.5673 77.872 66.9833 77.9573 67.3673 78.128C67.7619 78.288 68.0979 78.5333 68.3753 78.864C68.6526 79.184 68.8713 79.584 69.0312 80.064C69.1913 80.5333 69.2713 81.0773 69.2713 81.696V82.304C69.2713 82.9227 69.1913 83.472 69.0312 83.952C68.8713 84.4213 68.6473 84.8213 68.3593 85.152C68.0819 85.472 67.7513 85.7173 67.3673 85.888C66.9833 86.048 66.5673 86.128 66.1193 86.128ZM65.7193 84.752C66.3593 84.752 66.8606 84.5547 67.2233 84.16C67.5859 83.7547 67.7673 83.136 67.7673 82.304V81.696C67.7673 80.864 67.5806 80.2507 67.2073 79.856C66.8446 79.4507 66.3486 79.248 65.7193 79.248C65.1433 79.248 64.6633 79.4453 64.2793 79.84C63.8953 80.2347 63.6926 80.816 63.6713 81.584V82.304C63.6713 83.104 63.8633 83.712 64.2473 84.128C64.6313 84.544 65.1219 84.752 65.7193 84.752ZM74.3844 86.128C73.819 86.128 73.307 86.0427 72.8484 85.872C72.4004 85.6907 72.0164 85.44 71.6964 85.12C71.3764 84.7893 71.131 84.3893 70.9604 83.92C70.7897 83.44 70.7044 82.9013 70.7044 82.304V81.696C70.7044 81.1093 70.7897 80.5813 70.9604 80.112C71.1417 79.632 71.3924 79.2267 71.7124 78.896C72.0324 78.5653 72.4164 78.3147 72.8644 78.144C73.323 77.9627 73.8297 77.872 74.3844 77.872C74.939 77.872 75.4404 77.9627 75.8884 78.144C76.347 78.3147 76.7364 78.5653 77.0564 78.896C77.3764 79.216 77.6217 79.616 77.7924 80.096C77.9737 80.5653 78.0644 81.0987 78.0644 81.696V82.304C78.0644 82.9013 77.9737 83.4347 77.7924 83.904C77.6217 84.3733 77.3764 84.7733 77.0564 85.104C76.7364 85.4347 76.347 85.6907 75.8884 85.872C75.4404 86.0427 74.939 86.128 74.3844 86.128ZM74.3844 84.752C75.0564 84.752 75.5844 84.5493 75.9684 84.144C76.363 83.728 76.5604 83.1147 76.5604 82.304V81.696C76.5604 80.896 76.363 80.288 75.9684 79.872C75.5844 79.456 75.0564 79.248 74.3844 79.248C73.7124 79.248 73.179 79.456 72.7844 79.872C72.4004 80.2773 72.2084 80.8853 72.2084 81.696V82.304C72.2084 83.104 72.4004 83.712 72.7844 84.128C73.179 84.544 73.7124 84.752 74.3844 84.752ZM83.1813 86.128C82.6159 86.128 82.1039 86.0427 81.6453 85.872C81.1973 85.6907 80.8133 85.44 80.4933 85.12C80.1733 84.7893 79.9279 84.3893 79.7573 83.92C79.5866 83.44 79.5013 82.9013 79.5013 82.304V81.696C79.5013 81.1093 79.5866 80.5813 79.7573 80.112C79.9386 79.632 80.1893 79.2267 80.5093 78.896C80.8293 78.5653 81.2133 78.3147 81.6613 78.144C82.1199 77.9627 82.6266 77.872 83.1813 77.872C83.7359 77.872 84.2373 77.9627 84.6853 78.144C85.1439 78.3147 85.5333 78.5653 85.8533 78.896C86.1733 79.216 86.4186 79.616 86.5893 80.096C86.7706 80.5653 86.8612 81.0987 86.8612 81.696V82.304C86.8612 82.9013 86.7706 83.4347 86.5893 83.904C86.4186 84.3733 86.1733 84.7733 85.8533 85.104C85.5333 85.4347 85.1439 85.6907 84.6853 85.872C84.2373 86.0427 83.7359 86.128 83.1813 86.128ZM83.1813 84.752C83.8533 84.752 84.3813 84.5493 84.7653 84.144C85.1599 83.728 85.3573 83.1147 85.3573 82.304V81.696C85.3573 80.896 85.1599 80.288 84.7653 79.872C84.3813 79.456 83.8533 79.248 83.1813 79.248C82.5093 79.248 81.9759 79.456 81.5813 79.872C81.1973 80.2773 81.0053 80.8853 81.0053 81.696V82.304C81.0053 83.104 81.1973 83.712 81.5813 84.128C81.9759 84.544 82.5093 84.752 83.1813 84.752ZM91.4661 82.56L90.2181 84.096V86H88.7781V74.8H90.2181V82.112L93.4501 78H95.1781L92.4101 81.504L95.4981 86H93.7381L91.4661 82.56Z" fill="white"/>
<g clip-path="url(#clip2_1_4179)">
<path d="M9.8288 118.088L8.10797 119.763C7.80964 120.053 7.31047 119.924 7.18964 119.526L6.04297 115.751" stroke="white" stroke-width="1.5" stroke-linecap="round" stroke-linejoin="round"/>
<path d="M11.7534 113.106C11.7534 113.106 9.59594 115.053 8.48927 116.052C8.15844 116.35 8.18594 116.875 8.54427 117.139L13.0259 120.45C13.4668 120.776 14.0968 120.537 14.2109 120L16.4118 109.628C16.5184 109.126 16.0259 108.707 15.5476 108.891L2.61844 113.878C2.2376 114.024 2.25594 114.568 2.6451 114.69L6.0426 115.75" stroke="white" stroke-width="1.5" stroke-linecap="round" stroke-linejoin="round"/>
</g>
<path d="M28.32 108.8H36.96V110.176H33.392V120H31.888V110.176H28.32V108.8ZM39.3669 120.128C38.8335 120.128 38.3429 120.043 37.8949 119.872C37.4575 119.691 37.0789 119.435 36.7589 119.104C36.4495 118.773 36.2042 118.373 36.0229 117.904C35.8522 117.435 35.7669 116.901 35.7669 116.304V115.696C35.7669 115.109 35.8522 114.581 36.0229 114.112C36.2042 113.643 36.4549 113.243 36.7749 112.912C37.0949 112.581 37.4735 112.325 37.9109 112.144C38.3482 111.963 38.8335 111.872 39.3669 111.872C39.9002 111.872 40.3855 111.963 40.8229 112.144C41.2709 112.315 41.6495 112.565 41.9589 112.896C42.2789 113.227 42.5242 113.632 42.6949 114.112C42.8762 114.581 42.9669 115.109 42.9669 115.696V116.464H37.2709C37.2922 117.243 37.4949 117.829 37.8789 118.224C38.2629 118.619 38.7589 118.816 39.3669 118.816C39.9962 118.816 40.4549 118.704 40.7429 118.48C41.0309 118.256 41.2549 117.936 41.4149 117.52H42.8869C42.7269 118.309 42.3695 118.944 41.8149 119.424C41.2602 119.893 40.4442 120.128 39.3669 120.128ZM39.3669 113.184C38.7909 113.184 38.3162 113.355 37.9429 113.696C37.5802 114.027 37.3615 114.533 37.2869 115.216H41.4309C41.3669 114.512 41.1589 114 40.8069 113.68C40.4549 113.349 39.9749 113.184 39.3669 113.184ZM47.2235 120C46.4662 120 45.8848 119.803 45.4795 119.408C45.0848 119.003 44.8875 118.416 44.8875 117.648V108.8H46.3275V117.488C46.3275 118.288 46.6955 118.688 47.4315 118.688H47.9275V120H47.2235ZM52.57 120.128C52.0367 120.128 51.546 120.043 51.098 119.872C50.6607 119.691 50.282 119.435 49.962 119.104C49.6527 118.773 49.4073 118.373 49.226 117.904C49.0553 117.435 48.97 116.901 48.97 116.304V115.696C48.97 115.109 49.0553 114.581 49.226 114.112C49.4073 113.643 49.658 113.243 49.978 112.912C50.298 112.581 50.6767 112.325 51.114 112.144C51.5513 111.963 52.0367 111.872 52.57 111.872C53.1033 111.872 53.5887 111.963 54.026 112.144C54.474 112.315 54.8527 112.565 55.162 112.896C55.482 113.227 55.7273 113.632 55.898 114.112C56.0793 114.581 56.17 115.109 56.17 115.696V116.464H50.474C50.4953 117.243 50.698 117.829 51.082 118.224C51.466 118.619 51.962 118.816 52.57 118.816C53.1993 118.816 53.658 118.704 53.946 118.48C54.234 118.256 54.458 117.936 54.618 117.52H56.09C55.93 118.309 55.5727 118.944 55.018 119.424C54.4633 119.893 53.6473 120.128 52.57 120.128ZM52.57 113.184C51.994 113.184 51.5193 113.355 51.146 113.696C50.7833 114.027 50.5647 114.533 50.49 115.216H54.634C54.57 114.512 54.362 114 54.01 113.68C53.658 113.349 53.178 113.184 52.57 113.184ZM60.7786 119.808C60.32 119.808 59.8933 119.728 59.4986 119.568C59.1146 119.408 58.784 119.173 58.5066 118.864C58.2293 118.544 58.0106 118.16 57.8506 117.712C57.6906 117.253 57.6106 116.731 57.6106 116.144V115.536C57.6106 114.96 57.6906 114.443 57.8506 113.984C58.0106 113.525 58.2293 113.141 58.5066 112.832C58.7946 112.523 59.1306 112.288 59.5146 112.128C59.8986 111.957 60.32 111.872 60.7786 111.872C61.9413 111.872 62.8053 112.293 63.3706 113.136L63.5306 112H64.6506V120C64.6506 121.088 64.3626 121.915 63.7866 122.48C63.2213 123.045 62.3786 123.328 61.2586 123.328C60.192 123.328 59.4026 123.099 58.8906 122.64C58.3893 122.192 58.096 121.579 58.0106 120.8H59.4506C59.536 121.205 59.7066 121.515 59.9626 121.728C60.2186 121.941 60.6506 122.048 61.2586 122.048C61.952 122.048 62.448 121.888 62.7466 121.568C63.056 121.259 63.2106 120.736 63.2106 120V118.784C62.624 119.467 61.8133 119.808 60.7786 119.808ZM61.1626 118.432C61.76 118.432 62.2506 118.229 62.6346 117.824C63.0186 117.419 63.2106 116.859 63.2106 116.144V115.536C63.2106 114.821 63.0186 114.261 62.6346 113.856C62.2506 113.451 61.76 113.248 61.1626 113.248C60.5226 113.248 60.0213 113.445 59.6586 113.84C59.296 114.224 59.1146 114.789 59.1146 115.536V116.144C59.1146 116.901 59.296 117.472 59.6586 117.856C60.032 118.24 60.5333 118.432 61.1626 118.432ZM67.0438 112H68.1638L68.3078 113.088C68.5851 112.693 68.9371 112.395 69.3638 112.192C69.7904 111.979 70.2704 111.872 70.8038 111.872H71.6038V113.248H70.8038C70.0678 113.248 69.5024 113.429 69.1078 113.792C68.7131 114.155 68.5051 114.624 68.4838 115.2V120H67.0438V112ZM75.1219 120.128C74.2899 120.128 73.6552 119.92 73.2179 119.504C72.7805 119.077 72.5619 118.496 72.5619 117.76C72.5619 117.355 72.6259 116.992 72.7539 116.672C72.8819 116.341 73.0845 116.064 73.3619 115.84C73.6499 115.616 74.0125 115.445 74.4499 115.328C74.8979 115.211 75.4419 115.152 76.0819 115.152H77.6819V114.56C77.6819 114.112 77.5485 113.765 77.2819 113.52C77.0259 113.275 76.6259 113.152 76.0819 113.152C75.5379 113.152 75.1432 113.253 74.8979 113.456C74.6632 113.659 74.5245 113.92 74.4819 114.24H72.8819C72.9245 113.557 73.2019 112.992 73.7139 112.544C74.2365 112.096 75.0259 111.872 76.0819 111.872C77.0845 111.872 77.8419 112.112 78.3539 112.592C78.8659 113.072 79.1219 113.728 79.1219 114.56V120H78.0019L77.8259 118.688C77.5379 119.147 77.1592 119.504 76.6899 119.76C76.2312 120.005 75.7085 120.128 75.1219 120.128ZM75.2819 118.848C75.6339 118.848 75.9539 118.789 76.2419 118.672C76.5405 118.555 76.7965 118.4 77.0099 118.208C77.2232 118.005 77.3885 117.771 77.5059 117.504C77.6232 117.237 77.6819 116.955 77.6819 116.656V116.368H76.0819C75.3459 116.368 74.8232 116.496 74.5139 116.752C74.2152 116.997 74.0659 117.323 74.0659 117.728C74.0659 118.069 74.1725 118.341 74.3859 118.544C74.5992 118.747 74.8979 118.848 75.2819 118.848ZM81.4344 112H82.5544L82.6984 113.088C82.9757 112.693 83.317 112.395 83.7224 112.192C84.1384 111.979 84.6024 111.872 85.1144 111.872C85.6584 111.872 86.1437 111.995 86.5704 112.24C86.997 112.485 87.333 112.848 87.5784 113.328C87.8557 112.869 88.2237 112.512 88.6824 112.256C89.141 112 89.6584 111.872 90.2344 111.872C90.6504 111.872 91.0344 111.947 91.3864 112.096C91.7384 112.245 92.0424 112.464 92.2984 112.752C92.5544 113.04 92.7517 113.397 92.8904 113.824C93.0397 114.24 93.1144 114.725 93.1144 115.28V120H91.6744V115.28C91.6744 114.597 91.5144 114.091 91.1944 113.76C90.885 113.419 90.4584 113.248 89.9144 113.248C89.3704 113.248 88.917 113.429 88.5544 113.792C88.2024 114.155 88.0157 114.624 87.9944 115.2V120H86.5544V115.28C86.5544 114.597 86.3944 114.091 86.0744 113.76C85.765 113.419 85.3384 113.248 84.7944 113.248C84.2504 113.248 83.797 113.424 83.4344 113.776C83.0824 114.128 82.8957 114.603 82.8744 115.2V120H81.4344V112Z" fill="white"/>
<defs>
<clipPath id="clip0_1_4179">
<rect width="20" height="20" fill="white" transform="translate(0 36)"/>
</clipPath>
<clipPath id="clip1_1_4179">
<rect width="20" height="20" fill="white" transform="translate(0 70)"/>
</clipPath>
<clipPath id="clip2_1_4179">
<rect width="20" height="20" fill="white" transform="translate(0 104)"/>
</clipPath>
</defs>
</svg>
