<svg width="24" height="24" viewBox="0 0 24 24" fill="none" xmlns="http://www.w3.org/2000/svg">
<g clip-path="url(#clip0_122_2665)">
<path d="M19 11V5C19 3.895 18.105 3 17 3H5C3.895 3 3 3.895 3 5V18" stroke="white" stroke-width="1.5" stroke-linecap="round" stroke-linejoin="round"/>
<path d="M7 3V16" stroke="white" stroke-width="1.5" stroke-linecap="round" stroke-linejoin="round"/>
<path d="M11 16H5C3.895 16 3 16.895 3 18C3 19.105 3.895 20 5 20H11" stroke="white" stroke-width="1.5" stroke-linecap="round" stroke-linejoin="round"/>
<path d="M19.1213 14.879C20.4193 16.177 20.2793 18.366 18.7033 19.473C17.7003 20.177 16.2993 20.177 15.2963 19.473C13.7193 18.367 13.5803 16.177 14.8783 14.879C16.0503 13.707 17.9503 13.707 19.1213 14.879" stroke="white" stroke-width="1.5" stroke-linecap="round" stroke-linejoin="round"/>
<path d="M21.0001 21.0001L19.1201 19.1201" stroke="white" stroke-width="1.5" stroke-linecap="round" stroke-linejoin="round"/>
</g>
<defs>
<clipPath id="clip0_122_2665">
<rect width="24" height="24" fill="white"/>
</clipPath>
</defs>
</svg>
