<svg width="103" height="28" viewBox="0 0 103 28" fill="none" xmlns="http://www.w3.org/2000/svg">
<path d="M29.2375 20.2574C28.5736 24.3409 25.0815 27.5001 20.8157 27.585L0 28L1.64512 17.8621L20.518 17.4849C23.4815 17.4283 26.075 15.8816 27.6009 13.5805C28.6666 15.0046 29.3108 16.7493 29.3474 18.6637C29.3587 19.2107 29.3211 19.7387 29.2375 20.2574Z" fill="#FC1686"/>
<path d="M27.6012 13.5794C26.0756 15.8858 23.4817 17.4265 20.518 17.4832L1.6449 17.8613L2.84864 10.4507L20.4653 10.0915C23.3735 10.0347 25.9777 11.4148 27.6012 13.5794Z" fill="white"/>
<path d="M28.9424 10.1638C28.7397 11.4102 28.2717 12.5709 27.6009 13.5795C25.9781 11.4102 23.3738 10.0306 20.4655 10.0972L2.84943 10.4492L1.64533 17.861L1.59229 17.8706L4.44192 0.316235L20.1708 0.0021801C24.9777 -0.10248 28.9566 3.7414 29.0523 8.56529C29.0608 9.10762 29.0267 9.64051 28.9424 10.1638Z" fill="#2DFFFE"/>
<path d="M42.3569 17.5556L42.3879 17.4042C43.771 17.3002 44.7266 16.9504 45.2529 16.3641C45.7801 15.7684 46.1049 14.9931 46.2283 14.038C46.4147 12.7332 46.265 11.7592 45.7801 11.1162C45.2943 10.4732 44.479 10.0478 43.3322 9.83028C42.1864 9.6128 40.7036 9.49933 38.8865 9.49933C38.2256 9.49933 37.2803 9.53717 36.0526 9.61282C34.8231 9.67901 33.568 9.89651 32.2876 10.2464L32.5051 14.4446C33.4344 14.3595 34.4145 14.2934 35.4482 14.2272C36.481 14.1704 37.431 14.1326 38.2981 14.1326C38.7519 14.1326 39.0927 14.1515 39.3206 14.1799C39.5475 14.2177 39.6971 14.2839 39.7696 14.3973C39.8421 14.5108 39.8572 14.6905 39.8158 14.9458C39.7744 15.1349 39.6971 15.2957 39.5842 15.428C39.4702 15.5604 39.3092 15.6644 39.104 15.7211C38.8969 15.7873 38.6285 15.8157 38.2981 15.8157L33.28 15.844L32.8459 19.4278L38.1427 19.4561C38.5561 19.4561 38.8715 19.5035 39.088 19.6075C39.3045 19.7115 39.393 19.9762 39.3516 20.3923C39.3309 20.7043 39.2481 20.9218 39.104 21.0542C38.959 21.196 38.7415 21.2811 38.4525 21.3189C38.1635 21.3662 37.7916 21.3851 37.3378 21.3851C36.8623 21.3851 36.2899 21.3757 35.6186 21.3568C34.9473 21.3379 34.2092 21.2905 33.4033 21.2338C32.5983 21.1676 31.751 21.092 30.8631 21.0069L30.2437 25.1484C31.5241 25.4605 32.8196 25.6685 34.1311 25.7725C35.4426 25.8765 36.7804 25.9238 38.1427 25.9238C39.6717 25.9238 40.9672 25.8481 42.0311 25.6779C43.095 25.5077 43.9367 25.1485 44.5562 24.5717C45.1757 24.0043 45.5673 23.0965 45.733 21.8484C45.9194 20.5246 45.7377 19.4939 45.1907 18.7753C44.6437 18.0472 43.6985 17.6407 42.3569 17.5556Z" fill="white"/>
<path d="M58.9148 9.9383H55.2271C53.7823 9.9383 52.6613 10.2503 51.867 10.8742C51.0716 11.4981 50.5295 12.4528 50.2405 13.7384C50.0542 14.5419 49.8838 15.2509 49.7294 15.8653C49.5741 16.4798 49.4292 17.0091 49.2955 17.4628C49.1609 17.926 49.0423 18.3042 48.9388 18.6161C48.8353 18.928 48.7534 19.1927 48.6913 19.4007C48.4635 20.0435 48.0917 20.4216 47.5759 20.535C47.0592 20.6485 46.5434 20.7147 46.0267 20.7336L46.3373 25.6208C47.4931 25.8477 48.6442 25.9044 49.7906 25.7909C50.937 25.6775 51.9488 25.2994 52.827 24.6566C53.7042 24.0138 54.3188 23.0023 54.6708 21.641C54.7941 21.1589 54.9494 20.5823 55.1349 19.8922C55.3203 19.2116 55.517 18.4838 55.7231 17.7181C55.9293 16.9524 56.1363 16.2151 56.3434 15.5061C56.4874 14.9673 56.6578 14.608 56.8545 14.4379C57.0512 14.2583 57.3656 14.1732 57.7995 14.1732H58.3331L56.7773 25.4978H63.2519L65.4196 9.9383H65.0177H58.9148Z" fill="white"/>
<path d="M71.9012 7.60059H74.411C74.7618 7.60059 75.0198 7.52463 75.1853 7.36323C75.3498 7.21132 75.4528 6.95498 75.4953 6.60369L75.8357 4.2396C75.8763 3.88831 75.8253 3.63195 75.6816 3.46105C75.536 3.29965 75.2779 3.21424 74.9064 3.21424H72.5204C72.1281 3.21424 71.8445 3.29965 71.6686 3.46105C71.4928 3.63195 71.3746 3.90732 71.3132 4.30607L70.9719 6.57523C70.8888 7.25881 71.1988 7.60059 71.9012 7.60059Z" fill="white"/>
<path d="M77.7565 7.60059H80.2654C80.617 7.60059 80.8695 7.52463 81.0245 7.36323C81.1795 7.21132 81.2882 6.9455 81.3506 6.57523L81.6909 4.2396C81.7316 3.88831 81.6749 3.63195 81.5198 3.46105C81.3657 3.29965 81.1124 3.21424 80.7617 3.21424H78.283C77.9522 3.21424 77.6988 3.29019 77.5239 3.4516C77.3481 3.6035 77.2299 3.8788 77.1675 4.26806L76.8272 6.57523C76.744 7.25881 77.0541 7.60059 77.7565 7.60059Z" fill="white"/>
<path d="M73.6058 14.4351C73.7913 14.1703 74.0286 13.9812 74.3176 13.8677C74.6067 13.7542 74.9682 13.6975 75.4022 13.6975C75.8362 13.6786 76.1563 13.6975 76.3625 13.7636C76.5687 13.8204 76.7034 13.9245 76.7655 14.0758C76.8267 14.2176 76.8474 14.4067 76.8267 14.6336C76.7862 15.0307 76.677 15.3144 76.5019 15.5035C76.3258 15.6926 76.0942 15.8155 75.8052 15.8912C75.5152 15.9668 75.1546 16.0236 74.7206 16.0614L72.9525 16.241C73.0089 15.9857 73.0664 15.7399 73.1247 15.5319C73.2594 15.0591 73.4194 14.6904 73.6058 14.4351ZM103 9.94362H84.4744L83.8756 16.6288L89.6761 15.6264L89.5519 16.5153C88.7281 16.8652 88.0869 17.2433 87.3403 17.6594C84.0959 19.4843 76.9029 21.3849 73.1709 20.619C72.7952 20.5434 72.6182 20.1368 72.5674 19.6451C72.5608 19.5789 72.5561 19.5127 72.5533 19.437L76.4247 19.144C77.8284 19.0399 78.9902 18.8603 79.9101 18.6145C80.829 18.3686 81.5464 17.9809 82.0623 17.4609C82.5782 16.9503 82.8993 16.2222 83.0226 15.2861C83.209 14.019 83.1008 12.9599 82.6978 12.1089C82.2949 11.2579 81.5049 10.6149 80.3281 10.1705C79.1512 9.72608 77.4876 9.49918 75.3401 9.49918C73.9561 9.49918 72.7171 9.61262 71.6231 9.83955C70.5272 10.0665 69.5885 10.4732 68.8033 11.0499C68.019 11.6362 67.3788 12.4588 66.8827 13.5084C66.3875 14.5675 66.0561 15.929 65.8913 17.5932C65.7256 19.3519 65.8499 20.8554 66.2632 22.0846C66.6765 23.3233 67.5125 24.2595 68.7732 24.9025C70.032 25.5455 71.8396 25.8669 74.1943 25.8669C79.4468 25.8669 85.06 23.4179 89.2308 18.8036L88.2074 26.1128H94.9287L96.565 14.4351L102.342 13.4327L103 9.94362Z" fill="white"/>
</svg>
